<svg xmlns="http://www.w3.org/2000/svg" version="1.1" xmlns:xlink="http://www.w3.org/1999/xlink" width="33.24" height="19.66"><svg id="SvgjsSvg1001" data-name="Layer 1" xmlns="http://www.w3.org/2000/svg" viewBox="0 0 33.24 19.66">
  <path d="M6.04,1.55c.12,1.77,1.49,3.21,3.26,3.41l.95.11-1.52-5.07h-2.79l.11,1.55Z" fill="#2695f3"></path>
  <path d="M2.14,4.97c1.8-.21,3.18-1.7,3.26-3.51l.06-1.46H0l1.82,5.01.32-.04Z" fill="#2695f3"></path>
  <path d="M2.08,5.46h-.1s3.56,9.81,3.56,9.81l-.18-6.24c-.05-1.84-1.45-3.36-3.28-3.57Z" fill="#2695f3"></path>
  <path d="M27.06,14.52c-2.29.2-4.09,2.03-4.27,4.32l-.06.82h3.71l1.81-5.24-1.19.11Z" fill="#2695f3"></path>
  <path d="M22.09,19.01c-.1-2.36-1.94-4.28-4.3-4.48l-.29-.02,2.36,5.16h2.26l-.03-.65Z" fill="#2695f3"></path>
  <path d="M24.51,0l-1.39,4.91,5.41.25-5.55.26-.54,1.92.26,2.61c.22,2.25,2.02,4.02,4.27,4.21l1.34.12L33.24,0h-8.73Z" fill="#2695f3"></path>
  <path d="M19.72,2.06h-6.2l-2.46,5.74-.75-2.5-1,.12c-1.77.22-3.13,1.67-3.23,3.45l-.4,6.79,1.44,3.98h6.57l2.13-5-7.75-.29,8-.3.59-1.38.69,1.51.48-.04c2.33-.19,4.17-2.08,4.3-4.41l.12-2.04-2.54-5.65Z" fill="#2695f3"></path>
</svg><style>@media (prefers-color-scheme: light) { :root { filter: none; } }
@media (prefers-color-scheme: dark) { :root { filter: none; } }
</style></svg>